<!-- Generator: Adobe Illustrator 18.1.1, SVG Export Plug-In  -->
<svg version="1.1"
	 xmlns="http://www.w3.org/2000/svg" xmlns:xlink="http://www.w3.org/1999/xlink" xmlns:a="http://ns.adobe.com/AdobeSVGViewerExtensions/3.0/"
	 x="0px" y="0px" width="133.595px" height="124.847px" viewBox="0 0 133.595 124.847" enable-background="new 0 0 133.595 124.847"
	 xml:space="preserve">
<defs>
</defs>
<g>
	<polygon fill-rule="evenodd" clip-rule="evenodd" points="1.944,115.271 0.936,115.271 0.936,124.559 5.616,124.559 5.616,123.479 
		1.944,123.479 1.944,115.271 	"/>
	<polygon fill-rule="evenodd" clip-rule="evenodd" points="12.024,123.479 7.704,123.479 7.704,120.311 11.664,120.311 
		11.664,119.231 7.704,119.231 7.704,116.351 12.024,116.351 12.024,115.271 6.696,115.271 6.696,124.559 12.024,124.559 
		12.024,123.479 	"/>
	<polygon fill-rule="evenodd" clip-rule="evenodd" points="15.984,123.191 15.984,123.191 13.896,115.271 12.744,115.271 
		15.408,124.559 16.488,124.559 19.152,115.271 18,115.271 15.984,123.191 	"/>
	<polygon fill-rule="evenodd" clip-rule="evenodd" points="25.56,123.479 21.168,123.479 21.168,120.311 25.2,120.311 25.2,119.231 
		21.168,119.231 21.168,116.351 25.488,116.351 25.488,115.271 20.232,115.271 20.232,124.559 25.56,124.559 25.56,123.479 	"/>
	<path fill-rule="evenodd" clip-rule="evenodd" d="M27.936,120.599h2.376c1.224,0,1.296,0.864,1.296,1.656
		c0,0.36,0.072,1.728,0.216,2.304h1.224v-0.216c-0.36-0.216-0.36-0.36-0.432-0.936v-1.656c-0.072-1.296-0.504-1.512-0.864-1.728
		c0.432-0.36,1.008-0.864,1.008-2.304c0-1.944-1.224-2.448-2.448-2.448H27v9.288h0.936V120.599L27.936,120.599z M27.936,116.351
		h2.448c0.504,0,1.368,0.072,1.368,1.512c0,1.368-0.792,1.656-1.512,1.656h-2.304V116.351L27.936,116.351z"/>
	<path fill-rule="evenodd" clip-rule="evenodd" d="M38.232,121.823l0.72,2.736h1.08l-2.664-9.288h-1.08l-2.736,9.288h1.008
		l0.72-2.736H38.232L38.232,121.823z M35.64,120.743l1.152-4.104l1.08,4.104H35.64L35.64,120.743z"/>
	<path fill-rule="evenodd" clip-rule="evenodd" d="M43.776,120.671h2.304c0,1.008-0.216,1.8-0.792,2.448
		c-0.576,0.576-1.152,0.648-1.512,0.648c-1.944,0-2.448-1.944-2.448-3.888c0-2.448,1.08-3.744,2.376-3.744
		c0.792,0,1.872,0.288,2.232,1.944h0.936c-0.216-2.088-1.728-3.096-3.096-3.096c-2.376,0-3.456,2.592-3.456,4.824
		c0,1.008,0.072,2.592,1.152,3.96c0.36,0.504,1.008,1.08,2.232,1.08c1.008,0,1.944-0.576,2.376-1.512l0.288,1.224h0.648v-4.968
		h-3.24V120.671L43.776,120.671z"/>
	<polygon fill-rule="evenodd" clip-rule="evenodd" points="49.608,115.271 48.672,115.271 48.672,124.559 49.608,124.559 
		49.608,115.271 	"/>
	<polygon fill-rule="evenodd" clip-rule="evenodd" points="56.16,122.759 56.088,122.759 52.488,115.271 51.336,115.271 
		51.336,124.559 52.272,124.559 52.272,117.071 56.016,124.559 57.096,124.559 57.096,115.271 56.16,115.271 56.16,122.759 	"/>
	<path fill-rule="evenodd" clip-rule="evenodd" d="M61.776,120.671h2.304c0,1.008-0.144,1.8-0.792,2.448
		c-0.576,0.576-1.152,0.648-1.512,0.648c-1.944,0-2.448-1.944-2.448-3.888c0-2.448,1.08-3.744,2.376-3.744
		c0.864,0,1.872,0.288,2.232,1.944h0.936c-0.216-2.088-1.728-3.096-3.096-3.096c-2.376,0-3.456,2.592-3.456,4.824
		c0,1.008,0.072,2.592,1.152,3.96c0.36,0.504,1.008,1.08,2.232,1.08c1.008,0,1.944-0.576,2.448-1.512l0.216,1.224h0.648v-4.968
		h-3.24V120.671L61.776,120.671z"/>
	<polygon fill-rule="evenodd" clip-rule="evenodd" points="70.272,121.319 71.424,119.879 74.016,124.559 75.24,124.559 
		72.144,119.015 75.168,115.271 73.8,115.271 70.272,119.735 70.272,115.271 69.336,115.271 69.336,124.559 70.272,124.559 
		70.272,121.319 	"/>
	<polygon fill-rule="evenodd" clip-rule="evenodd" points="80.928,122.759 80.856,122.759 77.256,115.271 76.104,115.271 
		76.104,124.559 77.04,124.559 77.04,117.071 80.784,124.559 81.864,124.559 81.864,115.271 80.928,115.271 80.928,122.759 	"/>
	<path fill-rule="evenodd" clip-rule="evenodd" d="M89.064,119.879c0,2.232-0.936,3.816-2.52,3.816c-1.584,0-2.52-1.584-2.52-3.816
		c0-2.16,0.936-3.744,2.52-3.744C88.128,116.135,89.064,117.719,89.064,119.879L89.064,119.879z M90.144,119.879
		c0-2.016-0.864-4.896-3.6-4.896c-2.664,0-3.528,2.88-3.528,4.896c0,2.016,0.864,4.968,3.528,4.968
		C89.28,124.847,90.144,121.895,90.144,119.879L90.144,119.879z"/>
	<polygon fill-rule="evenodd" clip-rule="evenodd" points="94.968,116.855 94.968,116.855 96.624,124.559 97.704,124.559 
		99.576,115.271 98.496,115.271 97.128,122.831 95.472,115.271 94.464,115.271 92.808,122.831 91.44,115.271 90.36,115.271 
		92.232,124.559 93.312,124.559 94.968,116.855 	"/>
	<polygon fill-rule="evenodd" clip-rule="evenodd" points="101.52,115.271 100.512,115.271 100.512,124.559 105.192,124.559 
		105.192,123.479 101.52,123.479 101.52,115.271 	"/>
	<polygon fill-rule="evenodd" clip-rule="evenodd" points="111.6,123.479 107.28,123.479 107.28,120.311 111.24,120.311 
		111.24,119.231 107.28,119.231 107.28,116.351 111.528,116.351 111.528,115.271 106.272,115.271 106.272,124.559 111.6,124.559 
		111.6,123.479 	"/>
	<path fill-rule="evenodd" clip-rule="evenodd" d="M112.968,124.559h2.88c2.448,0,3.096-2.664,3.096-4.752
		c0-2.736-1.152-4.536-3.024-4.536h-2.952V124.559L112.968,124.559z M113.976,116.351h1.8c1.368,0,2.16,1.152,2.16,3.528
		c0,2.304-0.792,3.6-2.088,3.6h-1.872V116.351L113.976,116.351z"/>
	<path fill-rule="evenodd" clip-rule="evenodd" d="M123.408,120.671h2.232c0,1.008-0.144,1.8-0.792,2.448
		c-0.504,0.576-1.08,0.648-1.44,0.648c-1.944,0-2.448-1.944-2.448-3.888c0-2.448,1.08-3.744,2.376-3.744
		c0.792,0,1.872,0.288,2.16,1.944h1.008c-0.216-2.088-1.728-3.096-3.096-3.096c-2.376,0-3.456,2.592-3.456,4.824
		c0,1.008,0,2.592,1.152,3.96c0.36,0.504,0.936,1.08,2.232,1.08c1.008,0,1.872-0.576,2.376-1.512l0.216,1.224h0.648v-4.968h-3.168
		V120.671L123.408,120.671z"/>
	<polygon fill-rule="evenodd" clip-rule="evenodd" points="133.56,123.479 129.168,123.479 129.168,120.311 133.2,120.311 
		133.2,119.231 129.168,119.231 129.168,116.351 133.488,116.351 133.488,115.271 128.232,115.271 128.232,124.559 133.56,124.559 
		133.56,123.479 	"/>
	<polygon fill-rule="evenodd" clip-rule="evenodd" fill="#FAA74A" points="17.64,8.063 68.688,8.063 68.688,93.167 17.64,93.167 
		17.64,8.063 	"/>
	<path fill-rule="evenodd" clip-rule="evenodd" d="M1.512,90.647h6.192v-1.44c0-1.296-0.216-2.232-0.72-2.736
		c-0.432-0.576-1.224-0.864-2.376-0.864c-1.08,0-1.944,0.288-2.376,0.792c-0.504,0.576-0.72,1.44-0.72,2.664V90.647L1.512,90.647z
		 M9.144,90.647h6.696v-1.08c0-1.728-0.216-2.88-0.72-3.528c-0.432-0.648-1.296-0.936-2.52-0.936c-1.224,0-2.088,0.288-2.664,0.936
		c-0.504,0.648-0.792,1.728-0.792,3.096V90.647L9.144,90.647z M0.144,93.167v-4.032c0-2.088,0.36-3.6,1.008-4.536
		c0.72-1.008,1.872-1.44,3.384-1.44c1.08,0,1.944,0.288,2.592,0.864c0.72,0.576,1.152,1.44,1.296,2.52
		c0.216-1.368,0.72-2.376,1.368-3.024c0.72-0.648,1.656-0.936,2.88-0.936c1.512,0,2.664,0.504,3.456,1.656
		c0.72,1.08,1.08,2.736,1.08,4.968v3.96H0.144L0.144,93.167z M0.144,78.695v-2.448l11.808-3.456c0.288-0.144,0.72-0.216,1.296-0.36
		s1.224-0.288,1.944-0.36c-0.792-0.072-1.8-0.288-3.096-0.648l-0.144-0.072L0.144,68.039v-2.52l17.064,5.472v2.16L0.144,78.695
		L0.144,78.695z M1.512,58.535h6.192v-1.512c0-1.296-0.216-2.16-0.72-2.736c-0.432-0.576-1.224-0.864-2.376-0.864
		c-1.08,0-1.944,0.288-2.376,0.792c-0.504,0.576-0.72,1.44-0.72,2.664V58.535L1.512,58.535z M9.144,58.535h6.696v-1.152
		c0-1.656-0.216-2.88-0.72-3.528c-0.432-0.648-1.296-0.936-2.52-0.936c-1.224,0-2.088,0.288-2.664,1.008
		c-0.504,0.648-0.792,1.656-0.792,3.024V58.535L9.144,58.535z M0.144,60.983v-4.032c0-2.016,0.36-3.528,1.008-4.536
		c0.72-0.936,1.872-1.44,3.384-1.44c1.08,0,1.944,0.288,2.592,0.864c0.72,0.648,1.152,1.44,1.296,2.52
		c0.216-1.368,0.72-2.376,1.368-3.024c0.72-0.648,1.656-0.936,2.88-0.936c1.512,0,2.664,0.576,3.456,1.656
		c0.72,1.08,1.08,2.808,1.08,5.04v3.888H0.144L0.144,60.983z M16.776,35.063c0.216,0.504,0.36,1.08,0.432,1.656
		c0.072,0.576,0.144,1.224,0.144,1.8c0,2.448-0.72,4.248-2.088,5.4c-1.44,1.152-3.528,1.728-6.48,1.728
		c-2.88,0-5.04-0.576-6.552-1.872C0.792,42.551,0,40.679,0,38.303c0-0.648,0.072-1.224,0.144-1.728
		c0.072-0.576,0.216-1.08,0.36-1.584H2.16c-0.216,0.576-0.36,1.08-0.504,1.584c-0.072,0.504-0.144,0.936-0.144,1.44
		c0,1.728,0.576,3.024,1.728,3.888c1.152,0.792,2.952,1.224,5.328,1.224c2.664,0,4.536-0.36,5.616-1.152
		c1.152-0.792,1.656-2.016,1.656-3.816c0-0.36,0-0.72-0.072-1.08c0-0.288-0.072-0.648-0.216-0.936c0-0.216-0.072-0.36-0.144-0.576
		c-0.072-0.144-0.144-0.36-0.288-0.504H16.776L16.776,35.063z M0.144,30.527v-8.424h1.44v5.976h6.12v-5.904h1.44v5.904h6.624v-6.12
		h1.44v8.568H0.144L0.144,30.527z M1.512,14.327v4.248H0.144v-10.8h1.368v4.176h15.696v2.376H1.512L1.512,14.327z"/>
	<path fill-rule="evenodd" clip-rule="evenodd" d="M8.136,102.959c-0.144-1.584-1.152-3.024-3.024-3.024
		c-2.088,0-3.384,1.944-3.384,4.824c0,3.6,1.656,4.968,3.312,4.968c0.504,0,2.736-0.144,3.168-3.672H7.272
		c-0.36,2.16-1.44,2.592-2.088,2.592c-1.8,0-2.448-1.728-2.448-3.888c0-2.52,1.08-3.744,2.376-3.744c0.72,0,1.8,0.288,2.088,1.944
		H8.136L8.136,102.959z"/>
	<path fill-rule="evenodd" clip-rule="evenodd" d="M10.512,105.479h2.376c1.152,0,1.296,0.936,1.296,1.656c0,0.36,0,1.8,0.144,2.376
		h1.224v-0.216c-0.288-0.216-0.36-0.432-0.36-0.936l-0.072-1.728c-0.072-1.296-0.432-1.512-0.864-1.728
		c0.432-0.36,1.008-0.864,1.008-2.232c0-2.016-1.224-2.52-2.376-2.52H9.504v9.36h1.008V105.479L10.512,105.479z M10.512,101.231
		h2.448c0.432,0,1.296,0.144,1.296,1.584c0,1.368-0.792,1.584-1.512,1.584h-2.232V101.231L10.512,101.231z"/>
	<polygon fill-rule="evenodd" clip-rule="evenodd" points="22.176,108.359 17.784,108.359 17.784,105.263 21.744,105.263 
		21.744,104.111 17.784,104.111 17.784,101.303 22.104,101.303 22.104,100.151 16.776,100.151 16.776,109.511 22.176,109.511 
		22.176,108.359 	"/>
	<path fill-rule="evenodd" clip-rule="evenodd" d="M27.504,106.775l0.72,2.736h1.08l-2.664-9.36h-1.08l-2.736,9.36h1.008
		l0.792-2.736H27.504L27.504,106.775z M24.912,105.623l1.152-4.104l1.08,4.104H24.912L24.912,105.623z"/>
	<polygon fill-rule="evenodd" clip-rule="evenodd" points="28.368,101.303 30.816,101.303 30.816,109.511 31.824,109.511 
		31.824,101.303 34.272,101.303 34.272,100.151 28.368,100.151 28.368,101.303 	"/>
	<polygon fill-rule="evenodd" clip-rule="evenodd" points="36.288,100.151 35.352,100.151 35.352,109.511 36.288,109.511 
		36.288,100.151 	"/>
	<polygon fill-rule="evenodd" clip-rule="evenodd" points="42.84,107.711 42.768,107.711 39.168,100.151 38.016,100.151 
		38.016,109.511 38.952,109.511 38.952,101.951 42.696,109.511 43.776,109.511 43.776,100.151 42.84,100.151 42.84,107.711 	"/>
	<path fill-rule="evenodd" clip-rule="evenodd" d="M48.456,105.551h2.304c0,1.008-0.144,1.872-0.792,2.52
		c-0.576,0.504-1.152,0.576-1.512,0.576c-1.944,0-2.448-1.944-2.448-3.816c0-2.448,1.08-3.816,2.448-3.816
		c0.792,0,1.8,0.36,2.16,1.944h0.936c-0.216-2.088-1.728-3.024-3.096-3.024c-2.376,0-3.456,2.52-3.456,4.824
		c0,1.008,0.072,2.592,1.152,3.96c0.36,0.432,1.008,1.008,2.232,1.008c1.008,0,1.944-0.576,2.448-1.44l0.216,1.224h0.648v-5.04
		h-3.24V105.551L48.456,105.551z"/>
	<polygon fill-rule="evenodd" clip-rule="evenodd" points="58.104,108.143 58.104,108.143 56.016,100.151 54.936,100.151 
		57.6,109.511 58.608,109.511 61.272,100.151 60.192,100.151 58.104,108.143 	"/>
	<path fill-rule="evenodd" clip-rule="evenodd" d="M65.52,106.775l0.72,2.736h1.08l-2.664-9.36h-1.08l-2.736,9.36h1.008l0.72-2.736
		H65.52L65.52,106.775z M62.928,105.623l1.152-4.104l1.08,4.104H62.928L62.928,105.623z"/>
	<polygon fill-rule="evenodd" clip-rule="evenodd" points="69.192,100.151 68.184,100.151 68.184,109.511 72.864,109.511 
		72.864,108.359 69.192,108.359 69.192,100.151 	"/>
	<path fill-rule="evenodd" clip-rule="evenodd" d="M78.624,100.151v5.904c0,2.016-1.008,2.592-1.944,2.592
		c-0.864,0-1.8-0.576-1.8-2.592v-5.904h-1.008v6.264c0,1.728,0.864,3.312,2.808,3.312s2.88-1.584,2.88-3.528v-6.048H78.624
		L78.624,100.151z"/>
	<polygon fill-rule="evenodd" clip-rule="evenodd" points="86.616,108.359 82.224,108.359 82.224,105.263 86.184,105.263 
		86.184,104.111 82.224,104.111 82.224,101.303 86.544,101.303 86.544,100.151 81.216,100.151 81.216,109.511 86.616,109.511 
		86.616,108.359 	"/>
	<path fill-rule="evenodd" clip-rule="evenodd" d="M121.248,15.191c5.184-1.944,10.584-0.432,12.024,3.384
		c1.368,3.744-1.728,8.424-6.984,10.368c-5.184,1.944-10.584,0.432-11.952-3.384C112.896,21.815,115.992,17.135,121.248,15.191
		L121.248,15.191z"/>
	<path fill-rule="evenodd" clip-rule="evenodd" d="M101.088,77.903l4.104,0.072c-5.904,4.248-11.52,7.416-16.92,9.504
		c-5.328,2.16-10.368,3.24-15.12,3.24c-4.392,0-9.36-0.504-14.904-1.512c-5.472-0.936-12.384-2.52-20.52-4.752
		c-1.008,0.216-2.016,0.36-3.024,0.432c-1.08,0.072-2.16,0.144-3.384,0.144c-1.296,0-2.664-0.144-4.176-0.432
		c-1.512-0.288-3.024-0.648-4.536-1.224l12.744-7.704c1.8,0.216,5.256,0.864,10.296,2.088c2.016,0.432,3.456,0.792,4.536,1.008
		c14.544-3.168,26.496-8.064,35.784-14.832c9.216-6.696,13.824-13.608,13.824-20.736c0-3.888-1.584-6.984-4.752-9.216
		s-7.632-3.312-13.32-3.312c-8.064,0-15.192,2.52-21.384,7.632c-6.192,5.04-9.288,11.016-9.288,17.928
		c0,2.952,1.008,5.256,3.024,6.84c2.016,1.656,4.896,2.448,8.64,2.448c2.808,0,5.472-0.432,8.064-1.296
		c2.592-0.936,4.752-2.16,6.552-3.744h3.744c-4.536,3.528-9.576,6.408-15.12,8.496c-5.544,2.16-10.44,3.24-14.76,3.24
		c-4.536,0-8.208-1.08-11.016-3.096c-2.736-2.088-4.104-4.824-4.104-8.208c0-3.384,1.368-6.912,4.032-10.512
		c2.736-3.528,6.696-7.128,12.096-10.8c6.624-4.536,13.968-8.136,21.888-10.872c7.992-2.736,14.976-4.104,21.096-4.104
		c6.12,0,11.016,1.296,14.832,3.888c3.744,2.592,5.616,5.976,5.616,10.296c0,7.776-5.256,15.264-15.768,22.392
		c-10.512,7.056-25.776,13.392-45.576,18.864c6.48,1.656,11.88,2.808,16.128,3.528c4.32,0.72,7.92,1.152,10.944,1.152
		c3.816,0,7.344-0.576,10.656-1.728C95.256,81.863,98.28,80.135,101.088,77.903L101.088,77.903z"/>
	<path fill-rule="evenodd" clip-rule="evenodd" fill="#FAA74A" d="M120.888,14.687c5.112-1.728,10.368-0.36,11.736,3.024
		c1.368,3.384-1.656,7.632-6.768,9.36c-5.112,1.728-10.44,0.36-11.808-3.024C112.68,20.591,115.776,16.415,120.888,14.687
		L120.888,14.687z"/>
	<path fill-rule="evenodd" clip-rule="evenodd" d="M17.887,6.008V0.1h0.783v2.93l2.934-2.93h1.059l-2.478,2.393l2.587,3.514H21.74
		l-2.103-2.99L18.67,3.961v2.047H17.887L17.887,6.008z M23.537,6.008V5.182h0.827v0.827H23.537L23.537,6.008z M25.684,6.008V0.1
		h0.783v5.21h2.909v0.697H25.684L25.684,6.008z M30.42,6.008V5.182h0.827v0.827H30.42L30.42,6.008z M32.617,6.008V0.1h4.271v0.697
		h-3.489v1.809h3.268V3.3h-3.268v2.011h3.627v0.697H32.617L32.617,6.008z M38.218,6.008V5.182h0.827v0.827H38.218L38.218,6.008z
		 M42.425,4.11l0.737-0.065c0.034,0.296,0.116,0.538,0.243,0.728c0.128,0.19,0.326,0.342,0.594,0.459
		c0.268,0.117,0.571,0.175,0.907,0.175c0.298,0,0.561-0.044,0.789-0.132c0.228-0.09,0.399-0.211,0.51-0.365
		c0.111-0.155,0.168-0.323,0.168-0.506c0-0.186-0.054-0.347-0.162-0.486c-0.107-0.139-0.285-0.254-0.531-0.348
		c-0.16-0.062-0.509-0.158-1.052-0.289c-0.542-0.131-0.923-0.253-1.14-0.369c-0.282-0.147-0.492-0.331-0.631-0.55
		C42.72,2.144,42.651,1.9,42.651,1.627c0-0.297,0.084-0.576,0.253-0.835c0.169-0.26,0.417-0.457,0.741-0.592
		C43.971,0.068,44.332,0,44.729,0c0.439,0,0.824,0.07,1.159,0.212c0.334,0.14,0.592,0.348,0.772,0.622
		c0.179,0.273,0.277,0.584,0.29,0.931l-0.749,0.056c-0.041-0.372-0.177-0.656-0.41-0.846c-0.232-0.191-0.575-0.286-1.029-0.286
		c-0.473,0-0.817,0.087-1.034,0.26c-0.216,0.173-0.325,0.382-0.325,0.626c0,0.213,0.077,0.388,0.23,0.524
		c0.151,0.137,0.543,0.278,1.179,0.421c0.636,0.145,1.071,0.27,1.308,0.377c0.344,0.16,0.598,0.36,0.762,0.602
		c0.164,0.243,0.245,0.524,0.245,0.84c0,0.315-0.089,0.611-0.27,0.889c-0.18,0.278-0.439,0.494-0.776,0.649
		c-0.337,0.154-0.717,0.231-1.138,0.231c-0.535,0-0.984-0.077-1.344-0.234c-0.362-0.155-0.645-0.389-0.852-0.703
		C42.544,4.859,42.435,4.505,42.425,4.11L42.425,4.11z M47.832,3.868c0-0.792,0.22-1.38,0.662-1.761
		c0.367-0.316,0.816-0.476,1.345-0.476c0.589,0,1.07,0.192,1.443,0.579c0.374,0.385,0.56,0.917,0.56,1.597
		c0,0.552-0.083,0.985-0.247,1.3c-0.165,0.316-0.406,0.561-0.721,0.736c-0.316,0.175-0.66,0.261-1.034,0.261
		c-0.598,0-1.083-0.191-1.452-0.576C48.017,5.144,47.832,4.591,47.832,3.868L47.832,3.868z M48.578,3.868
		c0,0.549,0.12,0.959,0.359,1.231c0.239,0.274,0.541,0.41,0.902,0.41c0.36,0,0.66-0.138,0.9-0.411
		c0.238-0.274,0.357-0.692,0.357-1.253c0-0.53-0.12-0.931-0.36-1.204c-0.241-0.272-0.539-0.409-0.897-0.409
		c-0.362,0-0.663,0.136-0.902,0.407S48.578,3.321,48.578,3.868L48.578,3.868z M55.485,4.44l0.712,0.094
		C56.121,5.025,55.921,5.41,55.6,5.688c-0.321,0.278-0.715,0.417-1.183,0.417c-0.585,0-1.056-0.191-1.411-0.574
		C52.649,5.148,52.47,4.6,52.47,3.884c0-0.462,0.077-0.867,0.23-1.213c0.154-0.347,0.386-0.607,0.7-0.78
		c0.312-0.173,0.653-0.26,1.02-0.26c0.465,0,0.846,0.118,1.14,0.353c0.296,0.235,0.486,0.568,0.569,1.001l-0.706,0.109
		c-0.067-0.287-0.186-0.503-0.356-0.649c-0.171-0.144-0.377-0.217-0.619-0.217c-0.366,0-0.663,0.131-0.891,0.393
		c-0.228,0.261-0.343,0.675-0.343,1.242c0,0.575,0.11,0.993,0.332,1.255c0.22,0.26,0.507,0.391,0.862,0.391
		c0.285,0,0.521-0.088,0.713-0.263C55.313,5.072,55.434,4.803,55.485,4.44L55.485,4.44z M56.822,0.935V0.1h0.726v0.835H56.822
		L56.822,0.935z M56.822,6.008V1.729h0.726v4.279H56.822L56.822,6.008z M61.581,4.63l0.75,0.092
		c-0.118,0.439-0.337,0.778-0.656,1.02c-0.32,0.241-0.729,0.362-1.225,0.362c-0.626,0-1.123-0.193-1.488-0.578
		c-0.367-0.385-0.55-0.926-0.55-1.622c0-0.721,0.186-1.279,0.556-1.677c0.371-0.398,0.851-0.597,1.443-0.597
		c0.572,0,1.04,0.195,1.401,0.584c0.363,0.389,0.545,0.938,0.545,1.644c0,0.044-0.001,0.109-0.004,0.194H59.16
		c0.026,0.47,0.16,0.831,0.399,1.08c0.24,0.25,0.537,0.376,0.894,0.376c0.266,0,0.492-0.07,0.681-0.211
		C61.323,5.159,61.471,4.937,61.581,4.63L61.581,4.63z M59.2,3.457h2.389c-0.031-0.359-0.124-0.63-0.274-0.809
		c-0.231-0.279-0.531-0.419-0.898-0.419c-0.333,0-0.613,0.111-0.84,0.334C59.35,2.785,59.225,3.084,59.2,3.457L59.2,3.457z
		 M64.826,5.359L64.93,6c-0.204,0.042-0.386,0.065-0.547,0.065c-0.264,0-0.468-0.041-0.613-0.125
		c-0.145-0.083-0.246-0.193-0.305-0.329c-0.059-0.135-0.09-0.421-0.09-0.855V2.293h-0.532V1.729h0.532v-1.06l0.722-0.435v1.495
		h0.729v0.564h-0.729v2.502c0,0.208,0.012,0.34,0.037,0.399c0.026,0.059,0.067,0.106,0.125,0.142
		c0.058,0.035,0.14,0.052,0.248,0.052C64.588,5.388,64.694,5.378,64.826,5.359L64.826,5.359z M65.503,7.656l-0.081-0.681
		c0.16,0.043,0.297,0.065,0.415,0.065c0.161,0,0.29-0.028,0.387-0.081c0.098-0.054,0.176-0.128,0.238-0.226
		c0.047-0.071,0.12-0.252,0.221-0.539c0.014-0.041,0.036-0.1,0.065-0.177l-1.623-4.287h0.781l0.891,2.477
		c0.114,0.315,0.219,0.645,0.31,0.992c0.084-0.333,0.183-0.657,0.298-0.975l0.915-2.494h0.725l-1.627,4.352
		c-0.175,0.471-0.311,0.794-0.407,0.971c-0.129,0.239-0.276,0.414-0.443,0.526C66.4,7.689,66.201,7.745,65.97,7.745
		C65.83,7.745,65.675,7.715,65.503,7.656L65.503,7.656z"/>
</g>
</svg>